<svg id="Layer_1" data-name="Layer 1" xmlns="http://www.w3.org/2000/svg" viewBox="0 0 418.76 90.58"><defs><style>.cls-1{fill:none;stroke:#8e9ca4;stroke-miterlimit:10;stroke-width:1.72px;}.cls-2{font-size:35px;font-family:GothamRounded-Medium, Gotham Rounded;}.cls-2,.cls-3{fill:#8e9ca4;}</style></defs><title>Powered By</title><rect class="cls-1" x="0.86" y="0.86" width="417.04" height="88.86" rx="16.26" ry="16.26"/><text class="cls-2" transform="translate(34.46 55.8)">Powered by</text><path class="cls-3" d="M309.79,47a5,5,0,0,0-5,5.31v.06a5.14,5.14,0,0,0,5.08,5.34,5,5,0,0,0,5.05-5.27v-.06A5.15,5.15,0,0,0,309.79,47Z"/><path class="cls-3" d="M329.59,42.1h-4.51v8h4.51c2.94,0,4.77-1.64,4.77-3.95V46C334.36,43.46,332.5,42.1,329.59,42.1Z"/><path class="cls-3" d="M342.42,55.53v.06c0,1.61,1.42,2.53,3.25,2.53,2.53,0,4.45-1.45,4.45-3.57V53.41a10.58,10.58,0,0,0-3.79-.66C343.87,52.75,342.42,53.79,342.42,55.53Z"/><circle class="cls-3" cx="270.89" cy="45.1" r="3.16"/><path class="cls-3" d="M386.27,30.31a8,8,0,0,0-8-7.51h-107a3.16,3.16,0,0,0-3.11,3.7,3.29,3.29,0,0,0,3.3,2.62h26.29a3.16,3.16,0,0,1,3.11,3.7,3.3,3.3,0,0,1-3.3,2.62H282.23a3.16,3.16,0,0,0-3.11,3.7,3.29,3.29,0,0,0,3.3,2.62h7.7a3.16,3.16,0,0,1,3.11,3.69,3.29,3.29,0,0,1-3.3,2.62H284a3.35,3.35,0,0,0-3.35,3.35V62.06a5.72,5.72,0,0,0,5.72,5.72h80.8a8.77,8.77,0,0,0,8.47-6.51l9.93-26.49A9.42,9.42,0,0,0,386.27,30.31ZM299,58.93a1.91,1.91,0,0,1-3.82,0V39.36a1.88,1.88,0,0,1,1.89-1.89A1.91,1.91,0,0,1,299,39.36Zm19.74-6.57A8.72,8.72,0,0,1,309.79,61a8.62,8.62,0,0,1-8.84-8.62v-.06a8.89,8.89,0,0,1,17.78-.06ZM338.31,46c0,5-4,7.55-8.84,7.55h-4.39V58.9a1.94,1.94,0,0,1-3.88,0V40.52a1.93,1.93,0,0,1,2-2h6.76c5.18,0,8.4,2.94,8.4,7.39Zm15.45,12.85a1.82,1.82,0,0,1-1.86,1.83A1.73,1.73,0,0,1,350,59.09v-.63a6.78,6.78,0,0,1-5.43,2.43c-3.13,0-5.9-1.8-5.9-5.15v-.06c0-3.6,2.81-5.37,6.88-5.37a13.94,13.94,0,0,1,4.49.7V50.6c0-2.37-1.45-3.63-4.14-3.63a9.93,9.93,0,0,0-3.7.66,2.1,2.1,0,0,1-.6.09A1.59,1.59,0,0,1,340,46.15a1.67,1.67,0,0,1,1-1.51,14.27,14.27,0,0,1,5.37-1c2.49,0,4.36.66,5.53,1.86a6.92,6.92,0,0,1,1.8,5.15Zm17.81-12.35-6.09,14.62c-1.42,3.41-2.94,4.67-5.62,4.67a6.75,6.75,0,0,1-2.65-.47,1.63,1.63,0,0,1-1.2-1.58,1.54,1.54,0,0,1,1.55-1.58,1.93,1.93,0,0,1,.69.13,4.32,4.32,0,0,0,1.33.22c1.14,0,1.74-.47,2.37-1.77l.13-.35-6.19-13.83a2.59,2.59,0,0,1-.22-.92,1.83,1.83,0,0,1,1.89-1.86,1.92,1.92,0,0,1,1.86,1.45l4.48,11.08,4.17-11.08a2,2,0,0,1,1.83-1.45,1.81,1.81,0,0,1,1.83,1.8A3.45,3.45,0,0,1,371.56,46.52Z"/><circle class="cls-3" cx="261.65" cy="25.93" r="3.06"/></svg>