<svg width="354" height="63" viewBox="0 0 354 63" fill="none" xmlns="http://www.w3.org/2000/svg">
<path d="M6.16943 34.2588V44H2.88818V19.1172H12.0654C14.7884 19.1172 16.9189 19.8122 18.457 21.2021C20.0065 22.5921 20.7812 24.4321 20.7812 26.7222C20.7812 29.1375 20.0236 31.0003 18.5083 32.3105C17.0044 33.6094 14.8454 34.2588 12.0312 34.2588H6.16943ZM6.16943 31.5757H12.0654C13.82 31.5757 15.1644 31.1655 16.0986 30.3452C17.0329 29.5135 17.5 28.3172 17.5 26.7563C17.5 25.2752 17.0329 24.0903 16.0986 23.2017C15.1644 22.313 13.8826 21.8516 12.2534 21.8174H6.16943V31.5757ZM23.396 34.5835C23.396 32.772 23.7492 31.1427 24.4556 29.6958C25.1733 28.2489 26.1646 27.1323 27.4292 26.3462C28.7052 25.5601 30.1579 25.167 31.7871 25.167C34.305 25.167 36.3387 26.0386 37.8882 27.7817C39.4491 29.5249 40.2295 31.8434 40.2295 34.7373V34.9595C40.2295 36.7596 39.882 38.3774 39.187 39.813C38.5034 41.2371 37.5179 42.348 36.2305 43.1455C34.9544 43.943 33.4847 44.3418 31.8213 44.3418C29.3148 44.3418 27.2811 43.4702 25.7202 41.7271C24.1707 39.9839 23.396 37.6768 23.396 34.8057V34.5835ZM26.5747 34.9595C26.5747 37.0103 27.0475 38.6566 27.9932 39.8984C28.9502 41.1403 30.2262 41.7612 31.8213 41.7612C33.4277 41.7612 34.7038 41.1346 35.6494 39.8813C36.5951 38.6167 37.0679 36.8507 37.0679 34.5835C37.0679 32.5555 36.5837 30.9149 35.6152 29.6616C34.6582 28.397 33.3822 27.7646 31.7871 27.7646C30.2262 27.7646 28.9673 28.3856 28.0103 29.6274C27.0532 30.8693 26.5747 32.6466 26.5747 34.9595ZM60.5664 39.6421L64.1211 25.5088H67.2827L61.8994 44H59.3359L54.8413 29.9863L50.4663 44H47.9028L42.5366 25.5088H45.6812L49.3213 39.3516L53.6279 25.5088H56.1743L60.5664 39.6421ZM78.186 44.3418C75.6795 44.3418 73.6401 43.5215 72.0679 41.8809C70.4956 40.2288 69.7095 38.0243 69.7095 35.2671V34.686C69.7095 32.8517 70.057 31.2168 70.752 29.7812C71.4583 28.3343 72.4382 27.2064 73.6914 26.3975C74.9561 25.5771 76.3232 25.167 77.793 25.167C80.1969 25.167 82.0654 25.9588 83.3984 27.5425C84.7314 29.1261 85.3979 31.3934 85.3979 34.3442V35.6602H72.8711C72.9167 37.4831 73.4465 38.9585 74.4604 40.0864C75.4858 41.203 76.7847 41.7612 78.3569 41.7612C79.4735 41.7612 80.4191 41.5334 81.1938 41.0776C81.9686 40.6219 82.6465 40.0181 83.2275 39.2661L85.1587 40.77C83.6092 43.1512 81.285 44.3418 78.186 44.3418ZM77.793 27.7646C76.5169 27.7646 75.446 28.2318 74.5801 29.166C73.7142 30.0889 73.1787 31.3877 72.9736 33.0625H82.2363V32.8232C82.1452 31.2168 81.7122 29.9749 80.9375 29.0977C80.1628 28.209 79.1146 27.7646 77.793 27.7646ZM98.0103 28.3457C97.5317 28.266 97.0133 28.2261 96.4551 28.2261C94.3815 28.2261 92.9744 29.109 92.2339 30.875V44H89.0723V25.5088H92.1484L92.1997 27.645C93.2365 25.993 94.7062 25.167 96.6089 25.167C97.2241 25.167 97.6912 25.2467 98.0103 25.4062V28.3457ZM108.264 44.3418C105.758 44.3418 103.718 43.5215 102.146 41.8809C100.574 40.2288 99.7876 38.0243 99.7876 35.2671V34.686C99.7876 32.8517 100.135 31.2168 100.83 29.7812C101.536 28.3343 102.516 27.2064 103.77 26.3975C105.034 25.5771 106.401 25.167 107.871 25.167C110.275 25.167 112.144 25.9588 113.477 27.5425C114.81 29.1261 115.476 31.3934 115.476 34.3442V35.6602H102.949C102.995 37.4831 103.525 38.9585 104.539 40.0864C105.564 41.203 106.863 41.7612 108.435 41.7612C109.552 41.7612 110.497 41.5334 111.272 41.0776C112.047 40.6219 112.725 40.0181 113.306 39.2661L115.237 40.77C113.687 43.1512 111.363 44.3418 108.264 44.3418ZM107.871 27.7646C106.595 27.7646 105.524 28.2318 104.658 29.166C103.792 30.0889 103.257 31.3877 103.052 33.0625H112.314V32.8232C112.223 31.2168 111.79 29.9749 111.016 29.0977C110.241 28.209 109.193 27.7646 107.871 27.7646ZM118.381 34.6006C118.381 31.7637 119.054 29.485 120.398 27.7646C121.742 26.0329 123.503 25.167 125.679 25.167C127.843 25.167 129.558 25.9076 130.823 27.3887V17.75H133.984V44H131.079L130.925 42.0176C129.661 43.5671 127.9 44.3418 125.645 44.3418C123.503 44.3418 121.754 43.4645 120.398 41.71C119.054 39.9554 118.381 37.6654 118.381 34.8398V34.6006ZM121.543 34.9595C121.543 37.0558 121.976 38.6965 122.842 39.8813C123.708 41.0662 124.904 41.6587 126.431 41.6587C128.436 41.6587 129.9 40.7586 130.823 38.9585V30.4648C129.877 28.7217 128.424 27.8501 126.465 27.8501C124.915 27.8501 123.708 28.4482 122.842 29.6445C121.976 30.8408 121.543 32.6125 121.543 34.9595ZM163.242 34.9595C163.242 37.785 162.593 40.0579 161.294 41.7783C159.995 43.4873 158.252 44.3418 156.064 44.3418C153.729 44.3418 151.923 43.5158 150.647 41.8638L150.493 44H147.588V17.75H150.75V27.5425C152.026 25.9588 153.786 25.167 156.03 25.167C158.275 25.167 160.035 26.0158 161.311 27.7134C162.598 29.411 163.242 31.7352 163.242 34.686V34.9595ZM160.081 34.6006C160.081 32.4473 159.665 30.7839 158.833 29.6104C158.001 28.4368 156.805 27.8501 155.244 27.8501C153.159 27.8501 151.661 28.8185 150.75 30.7554V38.7534C151.718 40.6903 153.228 41.6587 155.278 41.6587C156.794 41.6587 157.973 41.0719 158.816 39.8984C159.659 38.7249 160.081 36.959 160.081 34.6006ZM173.086 39.3687L177.393 25.5088H180.776L173.342 46.854C172.192 49.9302 170.363 51.4683 167.856 51.4683L167.258 51.417L166.079 51.1948V48.6313L166.934 48.6997C168.005 48.6997 168.836 48.4832 169.429 48.0503C170.033 47.6174 170.528 46.8255 170.916 45.6748L171.616 43.7949L165.02 25.5088H168.472L173.086 39.3687Z" fill="#8E9CA4"/>
<path d="M277.2 33.2C276.517 33.1987 275.84 33.3376 275.212 33.608C274.584 33.8784 274.019 34.2747 273.55 34.7723C273.082 35.27 272.72 35.8584 272.488 36.5013C272.256 37.1441 272.158 37.8278 272.2 38.51V38.57C272.173 39.2566 272.284 39.9416 272.527 40.5846C272.769 41.2275 273.138 41.8152 273.612 42.3131C274.086 42.8109 274.654 43.2087 275.284 43.483C275.914 43.7573 276.593 43.9025 277.28 43.91C277.964 43.9179 278.643 43.7852 279.274 43.5203C279.904 43.2553 280.474 42.8637 280.947 42.3697C281.421 41.8757 281.788 41.2898 282.026 40.6483C282.263 40.0067 282.367 39.3232 282.33 38.64V38.58C282.361 37.8863 282.251 37.1935 282.008 36.5432C281.764 35.8929 281.392 35.2986 280.912 34.796C280.433 34.2935 279.857 33.893 279.219 33.6187C278.581 33.3444 277.894 33.202 277.2 33.2V33.2Z" fill="#8E9CA4"/>
<path d="M297 28.3H292.49V36.3H297C299.94 36.3 301.77 34.66 301.77 32.35V32.2C301.77 29.66 299.91 28.3 297 28.3Z" fill="#8E9CA4"/>
<path d="M309.83 41.73V41.79C309.83 43.4 311.25 44.32 313.08 44.32C315.61 44.32 317.53 42.87 317.53 40.75V39.61C316.318 39.1602 315.033 38.9365 313.74 38.95C311.28 38.95 309.83 39.99 309.83 41.73Z" fill="#8E9CA4"/>
<path d="M238.3 34.46C240.045 34.46 241.46 33.0452 241.46 31.3C241.46 29.5548 240.045 28.14 238.3 28.14C236.555 28.14 235.14 29.5548 235.14 31.3C235.14 33.0452 236.555 34.46 238.3 34.46Z" fill="#8E9CA4"/>
<path d="M353.68 16.51C353.555 14.4743 352.657 12.5632 351.17 11.1673C349.684 9.77145 347.72 8.99619 345.68 9.00001H238.68C238.22 9.00053 237.765 9.10163 237.348 9.29626C236.93 9.49089 236.561 9.77433 236.265 10.1268C235.968 10.4792 235.753 10.8921 235.633 11.3366C235.513 11.7811 235.491 12.2464 235.57 12.7C235.727 13.4538 236.143 14.1289 236.746 14.6076C237.349 15.0863 238.1 15.3384 238.87 15.32H265.16C265.62 15.3205 266.075 15.4216 266.492 15.6163C266.91 15.8109 267.279 16.0943 267.576 16.4468C267.872 16.7992 268.087 17.2121 268.207 17.6566C268.327 18.1011 268.349 18.5664 268.27 19.02C268.112 19.7729 267.695 20.4469 267.093 20.9253C266.49 21.4037 265.739 21.6565 264.97 21.64H249.64C249.18 21.6405 248.725 21.7416 248.308 21.9363C247.89 22.1309 247.521 22.4143 247.225 22.7668C246.928 23.1192 246.713 23.5321 246.593 23.9766C246.473 24.4211 246.451 24.8864 246.53 25.34C246.687 26.0938 247.103 26.7689 247.706 27.2476C248.309 27.7263 249.06 27.9784 249.83 27.96H257.53C257.989 27.9608 258.443 28.0617 258.86 28.2557C259.276 28.4498 259.645 28.7323 259.941 29.0835C260.237 29.4348 260.453 29.8464 260.574 30.2896C260.694 30.7329 260.717 31.1971 260.64 31.65C260.483 32.4038 260.067 33.0789 259.465 33.5576C258.862 34.0363 258.11 34.2884 257.34 34.27H251.41C250.522 34.27 249.669 34.623 249.041 35.2512C248.413 35.8795 248.06 36.7315 248.06 37.62V48.26C248.06 49.7771 248.663 51.232 249.735 52.3047C250.808 53.3774 252.263 53.98 253.78 53.98H334.58C336.512 53.9792 338.389 53.3406 339.921 52.1635C341.452 50.9863 342.552 49.3364 343.05 47.47L352.98 20.98C353.573 19.569 353.813 18.0348 353.68 16.51ZM266.41 45.13C266.41 45.6366 266.209 46.1224 265.851 46.4806C265.492 46.8388 265.007 47.04 264.5 47.04C263.993 47.04 263.508 46.8388 263.149 46.4806C262.791 46.1224 262.59 45.6366 262.59 45.13V25.56C262.589 25.3114 262.637 25.0651 262.731 24.8352C262.826 24.6053 262.965 24.3964 263.141 24.2206C263.316 24.0449 263.525 23.9057 263.755 23.8112C263.985 23.7167 264.231 23.6687 264.48 23.67C264.731 23.6674 264.98 23.7142 265.212 23.8077C265.445 23.9013 265.657 24.0398 265.836 24.2153C266.016 24.3908 266.159 24.5999 266.257 24.8306C266.355 25.0613 266.407 25.3092 266.41 25.56V45.13ZM286.15 38.56C286.14 39.718 285.899 40.8624 285.442 41.9263C284.985 42.9902 284.32 43.9524 283.487 44.7567C282.654 45.561 281.669 46.1913 280.589 46.6108C279.51 47.0303 278.358 47.2306 277.2 47.2C276.05 47.2294 274.905 47.0281 273.834 46.6081C272.762 46.1881 271.786 45.5578 270.962 44.7544C270.138 43.951 269.483 42.9908 269.037 41.9304C268.59 40.8699 268.36 39.7308 268.36 38.58V38.52C268.352 36.1622 269.281 33.8979 270.943 32.225C272.604 30.5522 274.862 29.608 277.22 29.6C279.578 29.5921 281.842 30.5211 283.515 32.1826C285.188 33.8442 286.132 36.1022 286.14 38.46L286.15 38.56ZM305.72 32.2C305.72 37.2 301.72 39.75 296.88 39.75H292.49V45.1C292.49 45.6145 292.286 46.108 291.922 46.4718C291.558 46.8356 291.065 47.04 290.55 47.04C290.036 47.04 289.542 46.8356 289.178 46.4718C288.814 46.108 288.61 45.6145 288.61 45.1V26.72C288.6 26.4547 288.645 26.1903 288.742 25.9432C288.839 25.6961 288.986 25.4717 289.174 25.284C289.362 25.0963 289.586 24.9493 289.833 24.8523C290.08 24.7552 290.345 24.7102 290.61 24.72H297.37C302.55 24.72 305.77 27.66 305.77 32.11L305.72 32.2ZM321.17 45.05C321.171 45.2933 321.124 45.5343 321.031 45.759C320.937 45.9836 320.8 46.1872 320.627 46.3578C320.453 46.5284 320.247 46.6625 320.021 46.7522C319.795 46.8419 319.553 46.8854 319.31 46.88C319.08 46.9034 318.848 46.8805 318.628 46.8128C318.407 46.745 318.202 46.6338 318.025 46.4856C317.848 46.3374 317.702 46.1553 317.597 45.95C317.491 45.7446 317.428 45.5202 317.41 45.29V44.66C316.749 45.4512 315.917 46.0813 314.976 46.5024C314.035 46.9234 313.01 47.1244 311.98 47.09C308.85 47.09 306.08 45.29 306.08 41.94V41.88C306.08 38.28 308.89 36.51 312.96 36.51C314.485 36.4962 316.002 36.7327 317.45 37.21V36.8C317.45 34.43 316 33.17 313.31 33.17C312.046 33.1525 310.79 33.3765 309.61 33.83C309.415 33.8889 309.213 33.9192 309.01 33.92C308.59 33.9227 308.186 33.7591 307.886 33.4649C307.587 33.1708 307.415 32.77 307.41 32.35C307.414 32.0288 307.51 31.7155 307.688 31.4477C307.865 31.1799 308.116 30.9689 308.41 30.84C310.119 30.164 311.942 29.8244 313.78 29.84C316.27 29.84 318.14 30.5 319.31 31.7C319.943 32.3917 320.43 33.2048 320.739 34.0901C321.048 34.9755 321.175 35.9144 321.11 36.85L321.17 45.05ZM338.98 32.7L332.89 47.32C331.47 50.73 329.95 51.99 327.27 51.99C326.364 52.0128 325.463 51.853 324.62 51.52C324.274 51.4254 323.969 51.2193 323.752 50.9336C323.535 50.648 323.418 50.2987 323.42 49.94C323.415 49.7336 323.451 49.5282 323.526 49.3361C323.602 49.1439 323.716 48.9689 323.86 48.8215C324.005 48.6741 324.178 48.5573 324.368 48.478C324.559 48.3987 324.764 48.3586 324.97 48.36C325.206 48.3608 325.44 48.4049 325.66 48.49C326.089 48.6325 326.538 48.7067 326.99 48.71C328.13 48.71 328.73 48.24 329.36 46.94L329.49 46.59L323.3 32.76C323.171 32.4695 323.096 32.1576 323.08 31.84C323.076 31.592 323.122 31.3458 323.216 31.1163C323.31 30.8867 323.449 30.6787 323.626 30.5047C323.803 30.3308 324.013 30.1945 324.244 30.1043C324.475 30.0141 324.722 29.9718 324.97 29.98C325.397 29.9804 325.812 30.1232 326.149 30.3858C326.486 30.6484 326.725 31.0159 326.83 31.43L331.31 42.51L335.48 31.43C335.595 31.0271 335.833 30.6704 336.161 30.4103C336.49 30.1501 336.892 29.9996 337.31 29.98C337.549 29.9774 337.785 30.0219 338.007 30.1111C338.228 30.2002 338.429 30.3322 338.599 30.4995C338.769 30.6668 338.905 30.866 338.998 31.0858C339.09 31.3055 339.139 31.5415 339.14 31.78C339.127 32.0997 339.07 32.4161 338.97 32.72L338.98 32.7Z" fill="#8E9CA4"/>
<path d="M229.06 15.19C230.75 15.19 232.12 13.82 232.12 12.13C232.12 10.44 230.75 9.07001 229.06 9.07001C227.37 9.07001 226 10.44 226 12.13C226 13.82 227.37 15.19 229.06 15.19Z" fill="#8E9CA4"/>
<line x1="204.5" x2="204.5" y2="63" stroke="#8E9CA4" stroke-width="3"/>
</svg>
