<svg id="Layer_1" data-name="Layer 1" xmlns="http://www.w3.org/2000/svg" viewBox="0 0 504.19 177.2"><defs><style>.cls-1{fill:#67aee6;}.cls-2{fill:#fff;}</style></defs><title>big</title><circle class="cls-1" cx="49.57" cy="87.84" r="12.44"/><path class="cls-1" d="M501.28,47.23,462.17,151.57a34.52,34.52,0,0,1-33.36,25.63H110.55A22.54,22.54,0,0,1,88,154.66v-42a13.18,13.18,0,0,1,13.18-13.18h23.37c6.2,0,12-4.2,13-10.31a12.46,12.46,0,0,0-12.25-14.56H95c-6.2,0-12-4.2-13-10.31A12.46,12.46,0,0,1,94.23,49.75h60.41c6.2,0,12-4.2,13-10.32A12.46,12.46,0,0,0,155.4,24.88H51.83c-6.2,0-12-4.2-13-10.32A12.46,12.46,0,0,1,51.07,0H472.43c17.82,0,30,13.28,31.6,29.6A37.13,37.13,0,0,1,501.28,47.23Z"/><circle class="cls-1" cx="12.44" cy="12.7" r="12.44"/><path class="cls-2" d="M145.14,65.22a7.4,7.4,0,0,1,7.46-7.46,7.51,7.51,0,0,1,7.59,7.46v77.12a7.53,7.53,0,0,1-15.05,0Z"/><path class="cls-2" d="M167.94,116.72v-.25c0-18.78,14.93-34.33,35.08-34.33S238,97.44,238,116.22v.25c0,18.66-14.93,34.21-35.2,34.21C182.74,150.68,167.94,135.38,167.94,116.72Zm55,0v-.25c0-11.57-8.34-21.15-20.15-21.15-12.07,0-19.78,9.46-19.78,20.9v.25c0,11.44,8.34,21,20,21C215.21,137.49,222.92,128,222.92,116.72Z"/><path class="cls-2" d="M247.7,69.82a7.59,7.59,0,0,1,7.71-7.71H282c20.41,0,33.09,11.57,33.09,29.11v.25c0,19.53-15.67,29.73-34.83,29.73H263v21a7.65,7.65,0,0,1-15.29,0Zm33.08,37.57c11.57,0,18.79-6.47,18.79-15.55v-.25c0-10.2-7.34-15.55-18.79-15.55H263v31.35Z"/><path class="cls-2" d="M316.62,129.79v-.25c0-14.18,11.07-21.15,27.11-21.15a54.82,54.82,0,0,1,17.67,2.74v-1.62c0-9.33-5.72-14.3-16.3-14.3a38.92,38.92,0,0,0-14.55,2.61,8.4,8.4,0,0,1-2.36.37A6.27,6.27,0,0,1,321.84,92,6.58,6.58,0,0,1,326,86a56.32,56.32,0,0,1,21.15-3.86c9.82,0,17.16,2.62,21.76,7.34,4.85,4.73,7.09,11.7,7.09,20.28V142.1a7.17,7.17,0,0,1-7.34,7.21c-4.35,0-7.34-3-7.34-6.34v-2.49c-4.48,5.35-11.31,9.58-21.39,9.58C327.56,150.06,316.62,143,316.62,129.79Zm45-4.73v-4.48A41.83,41.83,0,0,0,346.72,118c-9.7,0-15.42,4.1-15.42,10.94v.25c0,6.35,5.59,10,12.81,10C354.06,139.11,361.65,133.39,361.65,125.06Z"/><path class="cls-2" d="M389.5,167.59a6.41,6.41,0,0,1-4.73-6.22,6.06,6.06,0,0,1,6.1-6.22,7.6,7.6,0,0,1,2.73.5,16.94,16.94,0,0,0,5.23.87c4.47,0,6.84-1.86,9.32-7l.5-1.37L384.27,93.71a10.15,10.15,0,0,1-.87-3.61,7.23,7.23,0,0,1,7.47-7.34c3.85,0,6,2.24,7.34,5.72l17.66,43.66,16.41-43.66c1.25-3.11,3.36-5.72,7.22-5.72a7.11,7.11,0,0,1,7.21,7.09,13.53,13.53,0,0,1-.62,3.61l-24,57.59c-5.6,13.43-11.57,18.41-22.15,18.41A26.46,26.46,0,0,1,389.5,167.59Z"/></svg>