<?xml version="1.0" encoding="utf-8"?>
<!-- Generator: Adobe Illustrator 17.0.0, SVG Export Plug-In . SVG Version: 6.00 Build 0)  -->
<!DOCTYPE svg PUBLIC "-//W3C//DTD SVG 1.1//EN" "http://www.w3.org/Graphics/SVG/1.1/DTD/svg11.dtd">
<svg version="1.1" id="Layer_1" xmlns="http://www.w3.org/2000/svg" xmlns:xlink="http://www.w3.org/1999/xlink" x="0px" y="0px"
	 width="173.379px" height="56.655px" viewBox="0 0 173.379 56.655" enable-background="new 0 0 173.379 56.655"
	 xml:space="preserve">
<g>
	<g>
		<g>
			<path fill="#9B9A9A" d="M29.92,11.948L19.097,9.114c-1.924-0.208-4.274,3.405-8.382,12.886
				c-2.221,5.126-3.956,8.829-5.742,11.449c3.3,2.452,5.376,3.674,8.543,5.028c1.591-0.737,3.517-3.229,7.745-13
				C24.995,16.845,27.746,11.572,29.92,11.948"/>
		</g>
	</g>
	<g>
		<path fill="#EFB000" d="M13.53,38.481L3.405,33.72C1.457,32.435,1.523,26.16,2.3,15.747C2.886,7.844,2.707,4.652,2.471,2.767
			c4.592,1.26,10.614,5.812,10.176,14.255l-0.022,0.399c-0.064,1.175-0.149,2.434-0.254,3.8
			C11.669,30.805,11.593,37.412,13.53,38.481z"/>
	</g>
	<g>
		<path fill="#EFB000" d="M38.629,55.127C28.356,54.904,26.523,46.884,25.559,42c-0.003-0.021-0.005-0.035-0.014-0.054
			c-0.451-2.65-1.844-13.152-2.163-16.071c-1.053-9.552-2.183-16.056-4.281-16.76l10.82,2.832
			c2.154,0.914,4.214,14.726,5.344,25.102C36.107,44.748,37.981,52.91,38.629,55.127z"/>
	</g>
	<path fill="#003F6E" d="M54.941,2.959c-0.92-0.204-3.223-0.818-6.65-0.818c-5.729,0-8.389,2.557-8.389,7.827v3.786h-3.939
		c-0.512,0-0.819,0.307-0.819,0.767v3.479c0,0.46,0.307,0.716,0.819,0.716h3.939V40.61h6.854V18.715h7.571l0,0v-4.962h-7.571v-3.734
		c0-1.125,0.256-1.893,0.819-2.302c0.563-0.461,1.484-0.614,2.711-0.614c1.535,0,3.223,0.307,3.99,0.409h0.153
		c0.409,0,0.563-0.204,0.614-0.614l0.461-3.069V3.726C55.503,3.42,55.35,3.112,54.941,2.959z"/>
	<path fill="#003F6E" d="M66.449,41.275c-11.306,0-12.737-6.241-12.737-14.068c0-7.878,1.432-14.118,12.737-14.118
		c11.357,0,12.738,6.241,12.738,14.118C79.187,35.034,77.806,41.275,66.449,41.275z M66.449,17.845
		c-5.474,0-5.678,3.223-5.678,9.361c0,6.088,0.204,9.31,5.678,9.31s5.73-3.222,5.73-9.31C72.179,21.068,71.923,17.845,66.449,17.845
		z"/>
	<path fill="#003F6E" d="M96.015,18.357c-3.121,0-5.781,0.307-7.213,0.665V40.61h-5.985c-0.307,0-0.87-0.307-0.87-0.767v-22.1
		c0-1.995,1.177-2.609,3.632-3.325c2.251-0.716,5.883-1.228,8.799-1.279h0.87c0.716,0,0.716,0,1.074,0.153
		c0.204,0.102,0.46,0.306,0.46,0.818v3.326C96.782,17.947,96.731,18.357,96.015,18.357z"/>
	<path fill="#003F6E" d="M114.429,39.331c0,0.358-0.204,0.665-0.614,0.767c-0.87,0.256-3.121,0.972-6.395,0.972
		c-5.831,0-8.748-2.251-8.748-8.032V6.694c0-0.614,0.307-0.921,0.87-1.074l5.013-0.921h0.256c0.46,0,0.716,0.256,0.716,0.819v8.236
		h8.082l0.001,0.001v4.961h-8.083v14.17c0,2.251,0.921,3.172,3.581,3.172c1.535,0,3.019-0.256,3.888-0.461h0.204
		c0.307,0,0.512,0.204,0.563,0.563l0.614,2.916C114.377,39.177,114.429,39.228,114.429,39.331z"/>
	<path fill="#003F6E" d="M123.891,40.61h-6.752c-0.028,0-0.051-0.023-0.051-0.051V14.214h6.803V40.61z M123.481,10.274h-5.882
		c-0.254,0-0.461-0.206-0.461-0.461V2.551c0-0.226,0.183-0.409,0.409-0.409h5.882c0.254,0,0.461,0.206,0.461,0.461v7.263
		C123.891,10.091,123.707,10.274,123.481,10.274z"/>
	<path fill="#003F6E" d="M149.263,39.024c0,0.409-0.256,0.614-0.563,0.767c-1.279,0.666-5.013,1.331-8.594,1.331
		c-9.975,0-12.686-4.604-12.686-14.017c0-9.361,2.711-14.016,12.686-14.016c3.581,0,7.316,0.716,8.594,1.33
		c0.307,0.204,0.563,0.409,0.563,0.819c0,0.051,0,0.153-0.051,0.255l-0.512,2.762c-0.102,0.461-0.46,0.614-0.768,0.614
		c-0.102,0-0.204,0-0.306-0.051c-1.125-0.306-3.581-0.921-6.087-0.921c-5.525,0-7.162,2.354-7.162,9.208
		c0,6.855,1.637,9.259,7.162,9.259c2.506,0,4.962-0.614,6.087-0.92h0.306c0.307,0,0.666,0.102,0.768,0.563l0.512,2.711
		C149.263,38.819,149.263,38.922,149.263,39.024z"/>
	<path fill="#003F6E" d="M160.616,41.224c-4.45,0-8.491-1.177-9.361-1.535c-0.204-0.102-0.512-0.204-0.512-0.716v-0.255l0.614-2.916
		c0.051-0.409,0.256-0.563,0.563-0.563h0.256c0.614,0.153,4.297,1.279,7.775,1.279c2.813,0,4.962-0.869,4.962-3.325
		c0-3.018-2.046-3.069-5.064-3.58c-3.121-0.563-8.799-1.125-8.799-8.185c0-7.316,6.394-8.338,10.896-8.338
		c4.143,0,7.417,0.92,8.287,1.125c0.461,0.102,0.614,0.409,0.614,0.716c0,0.051,0,0.102-0.051,0.153l-0.512,3.07
		c-0.051,0.358-0.358,0.461-0.614,0.461h-0.204c-0.563-0.102-3.837-0.819-6.6-0.819c-2.455,0-5.064,0.563-5.064,3.121
		c0,2.864,2.762,3.018,5.525,3.427c4.042,0.665,8.39,1.586,8.39,8.236C171.718,39.28,166.756,41.224,160.616,41.224z"/>
</g>
</svg>
