<svg id="Layer_1" data-name="Layer 1" xmlns="http://www.w3.org/2000/svg" viewBox="0 0 17 14.42"><defs><style>.cls-1{fill:#424770;}.cls-2{fill:#aab7c4;}</style></defs><title>mesaage 1</title><path class="cls-1" d="M4.58,0A4,4,0,0,1,8.5,2.13V14.42a2.32,2.32,0,0,1-1.33-.59C6.14,13,4.11,13,1.95,13h-1A.94.94,0,0,1,0,12.05H0V.95A.94.94,0,0,1,.94,0Z"/><path class="cls-2" d="M12.42,0A4.11,4.11,0,0,0,8.5,2.11V14.42a2.32,2.32,0,0,0,1.33-.59c1-.83,3.06-.83,5.22-.83h1a.94.94,0,0,0,.94-.94h0V.95A.94.94,0,0,0,16.06,0H12.42Z"/></svg>