<svg xmlns="http://www.w3.org/2000/svg" width="20" height="20" viewBox="0 0 20 20"><g fill="none" fill-rule="evenodd"><path fill="#8898AA" d="M4.497 17a1.503 1.503 0 0 1-1.498-1.497V9.039c.384.144 1.22.223 1.65.263l.042 3.2c.004.275.23.498.508.498h9.688a.49.49 0 0 0 .495-.499l-.043-3.2c.817-.04 1.668-.12 1.66-.265v6.466c0 .827-.675 1.498-1.498 1.498H4.497z"/><path fill="#32325D" d="M17.974 5.547l.019.035c0 .03-.008.056-.01.086a.816.816 0 0 1-.016.162c-.134 1.365-1.327 2.439-2.797 2.439a2.85 2.85 0 0 1-2.382-1.258c-.582.76-1.613 1.267-2.79 1.267-1.178 0-2.21-.509-2.791-1.271A2.846 2.846 0 0 1 4.822 8.27c-1.47 0-2.663-1.073-2.796-2.439a.827.827 0 0 1-.017-.162c0-.029-.009-.056-.009-.086l.018-.036a1.12 1.12 0 0 1 .112-.368l.712-1.145c.023-.034.044-.072.065-.103l.396-.638C3.567 2.78 4.423 2 5.233 2h9.529c.81 0 1.665.78 1.93 1.293l.395.637c.02.032.042.07.063.102l.714 1.145c.063.13.094.251.11.37z"/></g></svg>