<svg xmlns="http://www.w3.org/2000/svg" width="20" height="20" viewBox="0 0 20 20"><g fill="none" fill-rule="evenodd"><path fill="#8898AA" d="M12.614 5.28h1.029v1.914h3.107l-1.207 6.8c-.172.982-.968 1.709-1.921 1.756H6.378c-.953-.047-1.749-.775-1.921-1.756l-1.207-6.8h4.019V5.28H9.2l3.285-3.444a1.17 1.17 0 0 1 1.676.036c.459.481.47 1.256.027 1.753L12.614 5.28zM7.73 13.723l-.534-2.871a.776.776 0 0 0-.756-.667.574.574 0 0 0-.414.265.627.627 0 0 0-.074.503l.534 2.87a.776.776 0 0 0 .756.667.574.574 0 0 0 .415-.265.627.627 0 0 0 .075-.502H7.73zm2.982-2.796c0-.406-.314-.735-.702-.736h-.018c-.387 0-.7.33-.7.735V13.8c0 .406.313.735.7.736h.018c.389 0 .703-.33.703-.736v-2.876l-.001.003zm1.502 2.795a.627.627 0 0 0 .074.502.574.574 0 0 0 .414.265.776.776 0 0 0 .756-.667l.535-2.87a.627.627 0 0 0-.075-.502.574.574 0 0 0-.413-.265.776.776 0 0 0-.756.667l-.535 2.87z"/><path fill="#32325D" d="M16.094 9H3.906C3.13 9 2.5 8.37 2.5 7.594v-.938c0-.776.63-1.406 1.406-1.406h5.27l-.695.697a1.244 1.244 0 0 0 1.756 1.763l2.454-2.46h3.403c.776 0 1.406.63 1.406 1.406v.938C17.5 8.37 16.87 9 16.094 9z"/></g></svg>