<svg xmlns="http://www.w3.org/2000/svg" width="20" height="20" viewBox="0 0 20 20"><g fill="none" fill-rule="evenodd"><path fill="#AAB7C4" d="M15.788 9.295h2.18a8 8 0 1 1-2.18-4.815v4.815zm-1.058 4.949c.233 0 .422.143.422.376 0 .162-.115.317-.23.417-1.125 1.01-2.69 1.788-4.455 1.788-3.798 0-6.298-3.083-6.298-6.087 0-2.818 2.326-5.233 4.93-5.233 2.603 0 3.628 1.79 3.628 1.79l1.706 7.072a.419.419 0 0 1 .297-.123z"/><path fill="#424770" d="M17.998 10c0-.332-.269-.658-.6-.658-.384 0-.6.313-.6.61-.03 1.058-.41 2.376-1.151 3.394-.785 1.077-2.304 2.319-4.414 2.319-2.542 0-4.405-1.923-4.405-3.975 0-1.434.962-2.39 1.943-2.39.53 0 .827.227.988.437a.33.33 0 0 0 .494.025l5.403-5.418A7.975 7.975 0 0 1 17.998 10z"/></g></svg>