<svg id="Layer_1" data-name="Layer 1" xmlns="http://www.w3.org/2000/svg" viewBox="0 0 205.11 125.07"><defs><style>.cls-1{fill:#67aee6;}.cls-2{fill:#fff;}</style></defs><title>small</title><circle class="cls-1" cx="34.98" cy="62" r="8.78"/><path class="cls-1" d="M203.05,33.33,175.45,107a24.36,24.36,0,0,1-23.54,18.09H78a15.91,15.91,0,0,1-15.91-15.91V79.53a9.3,9.3,0,0,1,9.3-9.31h16.5c4.38,0,8.46-3,9.18-7.28a8.79,8.79,0,0,0-8.65-10.27H67c-4.38,0-8.46-3-9.19-7.28a8.81,8.81,0,0,1,8.66-10.28h42.64c4.38,0,8.46-3,9.18-7.28a8.79,8.79,0,0,0-8.65-10.27H36.58c-4.38,0-8.46-3-9.18-7.28A8.8,8.8,0,0,1,36.05,0H182.69c12.58,0,21.19,9.37,22.3,20.89A26.12,26.12,0,0,1,203.05,33.33Z"/><circle class="cls-1" cx="8.78" cy="8.96" r="8.78"/><path class="cls-2" d="M102.44,46a5.22,5.22,0,0,1,5.27-5.26A5.3,5.3,0,0,1,113.07,46v54.44a5.32,5.32,0,0,1-10.63,0Z"/><path class="cls-2" d="M118.54,82.38v-.17C118.54,69,129.07,58,143.29,58S168,68.77,168,82v.18c0,13.17-10.53,24.14-24.84,24.14C129,106.35,118.54,95.55,118.54,82.38Zm38.8,0v-.17c0-8.17-5.88-14.93-14.22-14.93-8.52,0-14,6.67-14,14.75v.18C129.16,90.28,135,97,143.29,97,151.9,97,157.34,90.37,157.34,82.38Z"/></svg>