<svg width="496" height="496" viewBox="0 0 496 496" fill="none" xmlns="http://www.w3.org/2000/svg">
<path d="M496 0H0V496H496V0Z" fill="#FFCC00"/>
<path d="M25.4706 25.4703H471.871V471.87H25.4706V25.4703Z" fill="#FFCC00"/>
<path d="M248.001 335.135C364.628 335.135 458.465 296.259 458.465 248C458.465 199.741 364.628 160.865 248.001 160.865C131.374 160.865 37.5357 199.741 37.5357 248C37.5357 296.259 131.374 335.135 248.001 335.135Z" fill="#00678F"/>
<path d="M301.621 226.551L306.984 205.103H234.594L229.232 226.551H253.362L241.297 273.47H266.767L278.832 226.551H301.621Z" fill="#FFCC00"/>
<path d="M227.892 205.103H191.698L168.908 256.043V205.103H134.054L112.606 292.238H136.735L151.481 235.935V292.238H170.249L197.06 235.935L183.654 292.238H206.444L227.892 205.103Z" fill="#FFCC00"/>
<path d="M383.394 205.103H360.605L348.54 250.681L337.816 205.103H312.345L290.897 292.238H313.686L325.751 245.319L337.816 292.238H361.945L383.394 205.103Z" fill="#FFCC00"/>
<path d="M239.956 278.832L237.275 290.897H261.405L264.086 278.832H239.956Z" fill="#FF0000"/>
</svg>
